<svg xmlns="http://www.w3.org/2000/svg" xmlns:xlink="http://www.w3.org/1999/xlink" version="1.1" x="0px"  fill="#EAE8E8" y="0px" viewBox="0 0 100 125" style="enable-background:new 0 0 100 100;" xml:space="preserve"><g><path d="M80.8,44.5V44c0-2.5-2-4.5-4.5-4.5h-3.1c2.5,0,4.5-2,4.5-4.5v-0.5c0-2.5-2-4.5-4.5-4.5H69c2.5,0,4.5-2,4.5-4.5V25   c0-2.5-2-4.5-4.5-4.5H52.8l0,0c-6.7,0-12.3,4-14.3,9.5h-4.9v26h5.6c0,0,4.3,3.8,10.4,8.7c4.6,3.7,10.5,7.5,14.2,13.6   c2.7,4.4,14.4-3.5,1.2-19.7h8.3c2.5,0,4.5-2,4.5-4.5v-0.5c0-2.5-2-4.5-4.5-4.5h3.1C78.9,49.1,80.9,47.1,80.8,44.5z"/><path d="M21.6,56.1h7.9V29.9h-7.9c-1.4,0-2.5,1.1-2.5,2.5v21.2C19.1,55,20.2,56.1,21.6,56.1z M22.1,35c0-1.2,1-2.2,2.2-2.2   s2.2,1,2.2,2.2c0,1.2-1,2.2-2.2,2.2C23.1,37.2,22.1,36.2,22.1,35z"/></g></svg>