<svg xmlns="http://www.w3.org/2000/svg" fill="#f1f1f1" xmlns:xlink="http://www.w3.org/1999/xlink" xml:space="preserve" version="1.1" style="shape-rendering:geometricPrecision;text-rendering:geometricPrecision;image-rendering:optimizeQuality;" viewBox="0 0 226 357.5" x="0px" y="0px" fill-rule="evenodd" clip-rule="evenodd"><defs><style type="text/css">
   
    .fil0 {fill:#EAE8E8;fill-rule:nonzero}
   
  </style></defs><g><path class="fil0" d="M18 27l33 4c59,-51 77,-23 92,-23 5,0 0,-4 18,-2 23,3 33,15 28,32 20,4 24,15 20,32 17,7 19,23 8,37 25,36 -1,70 -74,60 0,38 19,59 16,82 -3,27 -21,34 -46,37 -6,-70 3,-37 -40,-99 -35,-52 -10,-48 -67,-56 -11,-36 -6,-71 12,-104zm6 12c-13,26 -16,53 -10,81 51,7 35,11 67,58 44,66 36,29 41,95 32,-7 29,-32 19,-55 -11,-27 -11,-40 -9,-63 27,4 78,10 82,-18 4,-28 -28,-37 -41,-36l-42 13c13,27 39,14 48,13l10 1 9 12c-30,-4 -10,-1 -33,1 -23,2 -41,-9 -49,-34l8 -3c-8,-6 -15,-14 -18,-26l9 -3c-6,-5 -11,-13 -16,-24l15 -5c-7,-6 -12,-15 -15,-25l28 -8c-30,-7 -50,8 -72,30l-31 -4zm96 46c17,28 30,7 52,5 6,-1 29,4 36,9 21,-23 -42,-27 -44,-27l-44 13zm-5 -27l12 14c44,-13 27,-12 72,-6 7,-21 -39,-22 -40,-22l-44 14zm-1 -31l11 16c36,-11 26,-11 54,-7 2,-18 -20,-20 -27,-20l-38 11z"/></g></svg>