<svg xmlns:dc="http://purl.org/dc/elements/1.1/" xmlns:cc="http://creativecommons.org/ns#" xmlns:rdf="http://www.w3.org/1999/02/22-rdf-syntax-ns#" xmlns:svg="http://www.w3.org/2000/svg" xmlns="http://www.w3.org/2000/svg" xmlns:sodipodi="http://sodipodi.sourceforge.net/DTD/sodipodi-0.dtd" xmlns:inkscape="http://www.inkscape.org/namespaces/inkscape" version="1.1" x="0px" y="0px" viewBox="0 0 100 125"><g transform="translate(0,-952.36218)"><path d="m 53,968.36215 c -15.96965,0 -29.4147,11.11506 -33.03125,25.99996 l -6.96875,0 10,11.99999 10,-11.99999 -4.75,0 c 3.3563,-10.468 13.13659,-17.99996 24.75,-17.99996 14.40675,0 26,11.59326 26,25.99995 0,14.4068 -11.59325,26.0001 -26,26.0001 -9.39777,0 -17.58988,-4.9145 -22.15625,-12.3438 l -6.96875,3.8438 c 5.95848,9.8803 16.78375,16.5 29.125,16.5 18.73031,0 34,-15.2698 34,-34.0001 0,-18.73019 -15.26969,-33.99995 -34,-33.99995 z m -4,17.99996 0,15.99999 0,1.9063 1.5,1.2187 10,8 3.125,2.5 5,-6.25 -3.125,-2.5 -8.5,-6.8125 0,-14.06249" style="text-indent:0;text-transform:none;direction:ltr;block-progression:tb;baseline-shift:baseline;color:#000000;enable-background:accumulate;"  fill="#EAE8E8" fill-opacity="1" stroke="none" marker="none" visibility="visible" display="inline" overflow="visible"/></g></svg>