<svg xmlns="http://www.w3.org/2000/svg" xmlns:xlink="http://www.w3.org/1999/xlink" version="1.1" x="0px" y="0px" viewBox="0 0 100 125" enable-background="new " fill="#EAE8E8"  xml:space="preserve"><title>Line/Playlist</title><desc>Created with Sketch.</desc><g><path d="M66,19.2c0-1.6-1.6-3.2-3.2-3.2H37.2c-1.6,0-3.2,1.6-3.2,3.2V20h32V19.2z"/><path d="M74,27.2c0-1.6-1.6-3.2-3.2-3.2H29.2c-1.6,0-3.2,1.6-3.2,3.2V28h48V27.2z"/><polygon points="42,70.4 62,58 42,45.6  "/><path d="M73.2,32H26.4C22,32,18,36,18,40.4v35.2c0,4.4,4,8.4,8.4,8.4h47.2c4.4,0,8.4-4,8.4-8.8V40.4C82,36,78,32,73.2,32z    M77.6,40.4v35.2c0,2.4-2,4.4-4.399,4.4H26.4C24,80,22,78,22,75.2V40.4c0-2.4,2-4.4,4.4-4.4h47.2C76,36,78,38,77.6,40.4z"/></g></svg>