<svg xmlns="http://www.w3.org/2000/svg" data-name="Layer 1" viewBox="0 0 100 125" x="0px" y="0px" fill="#EAE8E8"><title>UI2</title><path d="M100,44.55v3c-.06.25-.14.5-.18.76a12.92,12.92,0,0,1-2.56,6,2.06,2.06,0,0,0-.4,2.16A13,13,0,0,1,95.19,68a2.27,2.27,0,0,0-.25,1.25,37.58,37.58,0,0,1,.26,3.94,12.77,12.77,0,0,1-3.37,8.16,1.84,1.84,0,0,0-.38,1.05A45.33,45.33,0,0,1,91.18,87a12.28,12.28,0,0,1-5.8,8.67,16,16,0,0,1-7.8,2.24c-2.63.13-5.27,0-7.91.1a49.68,49.68,0,0,1-13.74-1.65c-4.13-1.09-8.19-2.42-12.28-3.69-3.12-1-6.15-2.25-9.43-2.6-2.83-.31-4.27-2.14-4.25-5.1.08-12.69,0-25.39,0-38.09,0-.4,0-.8,0-1.19A4,4,0,0,1,33.32,42,4.58,4.58,0,0,0,36,40.71c2-2,3.93-4,5.76-6.16,3-3.55,6-7.2,8.94-10.81a21,21,0,0,0,1.85-2.48c1.63-2.75,2.12-5.88,2.72-9s1.41-6,3.43-8.55A4,4,0,0,1,62.33,2a25.74,25.74,0,0,1,4.58.6,15,15,0,0,1,4.26,1.9A10.23,10.23,0,0,1,75.31,11a24.53,24.53,0,0,1-.64,14.07c-.84,2.25-2,4.37-3.07,6.56-.34.72-.61,1.48-1,2.34h1.17c5.4,0,10.8,0,16.21,0a11.47,11.47,0,0,1,10.33,6.09A26.15,26.15,0,0,1,100,44.55Z"/><path d="M0,45.19a4.49,4.49,0,0,1,2.06-2.63A4.92,4.92,0,0,1,4,42c6,0,12,0,18,0,2.38,0,4,1.82,4,4.41,0,4.66,0,9.31,0,14V85.46c0,2.31-1.1,3.88-3.08,4.37a6.19,6.19,0,0,1-1.43.11H4.5a4,4,0,0,1-4.35-2.9A1.14,1.14,0,0,0,0,86.88ZM11.94,82A4,4,0,0,0,16,78,4.12,4.12,0,0,0,12,74a4.09,4.09,0,0,0-4,4A4,4,0,0,0,11.94,82Z"/></svg>