<svg xmlns="http://www.w3.org/2000/svg" fill="#EAE8E8" xmlns:xlink="http://www.w3.org/1999/xlink" xml:space="preserve" version="1.1" style="shape-rendering:geometricPrecision;text-rendering:geometricPrecision;image-rendering:optimizeQuality;" viewBox="0 0 252 387.5" x="0px" y="0px" fill-rule="evenodd" clip-rule="evenodd"><defs><style type="text/css">
   
    .fil0 {fill:#EAE8E8;fill-rule:nonzero}
   
  </style></defs><g><path class="fil0" d="M241 267l-37 0c-56,65 -79,37 -96,38 -5,1 1,5 -19,5 -26,0 -38,-11 -35,-30 -22,-2 -28,-14 -26,-32 -19,-5 -24,-23 -14,-40 -32,-35 -9,-75 72,-75 -6,-42 -30,-61 -30,-86 0,-31 18,-41 45,-47 17,75 2,40 57,101 46,51 18,51 81,51 17,38 17,77 2,115zm-8 -12c10,-31 10,-60 -1,-90 -56,0 -40,-6 -81,-53 -57,-65 -43,-27 -58,-96 -34,11 -27,38 -13,62 16,27 18,41 19,66 -30,0 -86,1 -86,31 0,32 35,37 49,34l44 -20c-18,-28 -44,-9 -54,-7l-11 0 -11 -12c33,0 11,0 35,-6 25,-6 46,5 58,30l-8 4c10,5 18,14 23,26l-9 5c7,4 14,12 21,24l-16 7c9,6 15,14 20,25l-30 13c35,2 54,-16 75,-43l34 0zm-111 -36c-23,-29 -33,-3 -57,2 -6,1 -32,-1 -40,-5 -20,28 49,23 52,23l45 -20zm10 28l-16 -13c-46,21 -27,17 -77,17 -5,23 46,18 46,18l47 -22zm5 33l-15 -15c-37,17 -26,15 -57,15 0,20 25,19 32,18l40 -18z"/></g></svg>